<svg width="25" height="25" viewBox="0 0 25 25" fill="none" xmlns="http://www.w3.org/2000/svg">
<path d="M12.5 22.6563C10.4913 22.6563 8.52768 22.0606 6.85749 20.9446C5.18731 19.8286 3.88556 18.2424 3.11685 16.3866C2.34815 14.5308 2.14702 12.4887 2.5389 10.5186C2.93079 8.5485 3.89807 6.73883 5.31845 5.31845C6.73883 3.89807 8.5485 2.93079 10.5186 2.5389C12.4887 2.14702 14.5308 2.34815 16.3866 3.11685C18.2424 3.88556 19.8286 5.18731 20.9446 6.85749C22.0606 8.52768 22.6563 10.4913 22.6563 12.5C22.6532 15.1927 21.5822 17.7742 19.6782 19.6782C17.7742 21.5822 15.1927 22.6532 12.5 22.6563ZM12.5 3.90625C10.8003 3.90625 9.13881 4.41027 7.72557 5.35456C6.31234 6.29886 5.21086 7.64102 4.56041 9.21132C3.90997 10.7816 3.73979 12.5095 4.07138 14.1766C4.40297 15.8436 5.22145 17.3748 6.42331 18.5767C7.62516 19.7786 9.15642 20.597 10.8234 20.9286C12.4905 21.2602 14.2184 21.09 15.7887 20.4396C17.359 19.7892 18.7012 18.6877 19.6454 17.2744C20.5897 15.8612 21.0938 14.1997 21.0938 12.5C21.0912 10.2216 20.1849 8.03724 18.5738 6.42616C16.9628 4.81508 14.7784 3.90884 12.5 3.90625V3.90625Z" fill="#838383"/>
</svg>
